Coordinates
version=1
nRows=65
nColumns=12
inDegrees=yes

Units are S.I. units (second, meters, Newtons, ...)
Angles are in degrees

endheader
time	SC_y	SC_z	SC_x	AC_y	AC_z	AC_x	GH_y	GH_z	GH_yy	EL_x	PS_y
       0.0              -13.51          18.49           4.11          67.75         -11.06          6.505         -10.75          24.56          52.91          133.6          110.6
   0.03279              -13.52          18.49           4.12          67.75         -11.06          6.501         -10.74          24.56          52.88          133.6          110.6
   0.06558              -13.52          18.49           4.13          67.74         -11.06          6.498         -10.73          24.56          52.84          133.6          110.6
   0.09837              -13.53          18.48           4.14          67.74         -11.06          6.494         -10.72          24.57           52.8          133.6          110.6
    0.1312              -13.53          18.48          4.151          67.73         -11.06           6.49          -10.7          24.57          52.76          133.6          110.6
     0.164              -13.54          18.48          4.163          67.73         -11.06          6.486         -10.69          24.57          52.72          133.5          110.6
    0.1967              -13.55          18.48          4.176          67.72         -11.06          6.481         -10.67          24.58          52.67          133.5          110.6
    0.2295              -13.56          18.47          4.189          67.72         -11.06          6.477         -10.66          24.58          52.62          133.5          110.6
    0.2623              -13.57          18.47          4.204          67.71         -11.06          6.471         -10.64          24.59          52.57          133.5          110.6
    0.2951              -13.58          18.47          4.219           67.7         -11.06          6.466         -10.62          24.59          52.51          133.5          110.6
    0.3279              -13.59          18.46          4.236          67.69         -11.06           6.46         -10.61           24.6          52.45          133.5          110.6
    0.3607               -13.6          18.46          4.254          67.69         -11.06          6.454         -10.59           24.6          52.39          133.5          110.5
    0.3935              -13.61          18.45          4.273          67.68         -11.06          6.447         -10.56          24.61          52.32          133.5          110.5
    0.4263              -13.62          18.45          4.294          67.67         -11.06          6.439         -10.54          24.62          52.24          133.5          110.5
    0.4591              -13.63          18.44          4.317          67.66         -11.06          6.431         -10.51          24.62          52.16          133.4          110.5
    0.4919              -13.65          18.44          4.342          67.65         -11.06          6.423         -10.49          24.63          52.07          133.4          110.5
    0.5246              -13.66          18.43          4.368          67.63         -11.06          6.413         -10.46          24.64          51.97          133.4          110.5
    0.5574              -13.68          18.42          4.398          67.62         -11.06          6.403         -10.42          24.65          51.87          133.4          110.4
    0.5902               -13.7          18.42          4.429          67.61         -11.06          6.391         -10.39          24.66          51.75          133.4          110.4
     0.623              -13.72          18.41          4.464          67.59         -11.06          6.379         -10.35          24.67          51.63          133.3          110.4
    0.6558              -13.75           18.4          4.502          67.57         -11.06          6.366          -10.3          24.69          51.49          133.3          110.4
    0.6886              -13.77          18.39          4.544          67.56         -11.07          6.351         -10.26           24.7          51.34          133.3          110.3
    0.7214               -13.8          18.38          4.591          67.53         -11.07          6.334          -10.2          24.72          51.17          133.3          110.3
    0.7542              -13.83          18.37          4.642          67.51         -11.07          6.316         -10.14          24.73          50.98          133.2          110.3
     0.787              -13.86          18.35            4.7          67.48         -11.07          6.296         -10.08          24.75          50.78          133.2          110.2
    0.8198               -13.9          18.34          4.764          67.46         -11.07          6.273         -10.01          24.77          50.54          133.2          110.2
    0.8526              -13.95          18.32          4.835          67.42         -11.07          6.248         -9.925           24.8          50.29          133.1          110.1
    0.8853              -13.99           18.3          4.916          67.39         -11.07          6.219         -9.833          24.82          49.99          133.1          110.1
    0.9181              -14.05          18.28          5.007          67.35         -11.07          6.187          -9.73          24.85          49.66          133.0          110.0
    0.9509              -14.11          18.26           5.11           67.3         -11.07           6.15         -9.613          24.89          49.29          132.9          109.9
    0.9837              -14.18          18.23          5.228          67.25         -11.08          6.108         -9.479          24.93          48.86          132.9          109.9
     1.017              -14.26           18.2          5.363          67.19         -11.08          6.061         -9.325          24.97          48.37          132.8          109.8
     1.049              -14.36          18.16          5.519          67.11         -11.08          6.005         -9.147          25.02          47.81          132.7          109.7
     1.082              -14.47          18.12          5.701          67.03         -11.08          5.941         -8.941          25.08          47.15          132.5          109.5
     1.115              -14.59          18.07          5.913          66.94         -11.09          5.866           -8.7          25.16          46.38          132.4          109.4
     1.148              -14.74          18.01          6.163          66.82         -11.09          5.777         -8.415          25.24          45.48          132.2          109.2
      1.18              -14.92          17.94          6.461          66.69          -11.1          5.671         -8.077          25.34           44.4          132.0          109.0
     1.213              -15.14          17.86          6.817          66.53          -11.1          5.545         -7.672          25.46          43.11          131.8          108.7
     1.246               -15.4          17.76          7.249          66.33         -11.11          5.392         -7.181           25.6          41.55          131.5          108.4
     1.279              -15.71          17.63          7.776          66.09         -11.12          5.205         -6.582          25.78          39.64          131.2          108.1
     1.312               -16.1          17.48          8.426           65.8         -11.13          4.975         -5.843          25.99          37.29          130.8          107.6
     1.344              -16.59          17.29          9.237          65.43         -11.14          4.687         -4.921          26.26          34.35          130.2          107.1
     1.377               -17.2          17.05          10.26          64.97         -11.16          4.325          -3.76           26.6          30.65          129.6          106.3
      1.41              -17.98          16.75          11.56          64.39         -11.18          3.865         -2.283          27.03          25.95          128.7          105.4
     1.443              -18.98          16.36          13.22          63.63         -11.21          3.276        -0.3936          27.59          19.93          127.7          104.3
     1.476              -20.27          15.86          15.35          62.67         -11.25          2.519          2.031           28.3          12.21          126.3          102.8
     1.508               -21.9          15.22          18.08          61.44         -11.29          1.554          5.129           29.2          2.343          124.5          100.9
     1.541              -23.96          14.42           21.5          59.89         -11.35         0.3392          9.024          30.34         -10.06          122.3          98.49
     1.574              -26.47          13.44          25.68           58.0         -11.42         -1.141          13.77          31.73         -25.18          119.5          95.58
     1.607              -29.38          12.31          30.52          55.81          -11.5         -2.856          19.27          33.34          -42.7          116.4           92.2
      1.64              -32.53          11.08          35.76          53.44         -11.59         -4.714          25.23          35.09         -61.67          113.0          88.54
     1.672              -35.68          9.857           41.0          51.08         -11.68         -6.571          31.19          36.83         -80.64          109.6          84.88
     1.705              -38.58          8.725          45.84          48.89         -11.76         -8.287          36.69          38.44         -98.16          106.4           81.5
     1.738              -41.09          7.748          50.01           47.0         -11.83         -9.767          41.43          39.83         -113.3          103.7          78.58
     1.771              -43.15          6.946          53.44          45.45         -11.89         -10.98          45.33          40.97         -125.7          101.5          76.19
     1.803              -44.79          6.308          56.17          44.22         -11.94         -11.95          48.43          41.88         -135.5          99.72          74.28
     1.836              -46.07          5.809           58.3          43.26         -11.97          -12.7          50.85          42.59         -143.3          98.33           72.8
     1.869              -47.07           5.42          59.96           42.5          -12.0         -13.29          52.74          43.14         -149.3          97.25          71.63
     1.902              -47.85          5.116          61.26          41.92         -12.02         -13.75          54.22          43.57         -154.0          96.41          70.73
     1.935              -48.46          4.877          62.28          41.46         -12.04         -14.11          55.38          43.91         -157.7          95.74          70.01
     1.967              -48.95          4.687          63.09          41.09         -12.05          -14.4           56.3          44.18         -160.6          95.21          69.45
       2.0              -49.34          4.535          63.74           40.8         -12.06         -14.63          57.04           44.4         -163.0          94.79          68.99
     2.033              -49.66          4.412          64.27          40.56         -12.07         -14.82          57.64          44.58         -164.9          94.45          68.63
     2.066              -49.92          4.311           64.7          40.36         -12.08         -14.97          58.13          44.72         -166.4          94.17          68.32
     2.099              -50.13          4.227          65.06           40.2         -12.09          -15.1          58.54          44.84         -167.7          93.93          68.07
